<?xml version="1.0" encoding="utf-8"?>
<svg version="1.1" xmlns:xlink="http://www.w3.org/1999/xlink" width="31px" height="34px" xmlns="http://www.w3.org/2000/svg">
  <g>
    <path d="M 13.255729166666667 20.484951731970472  C 14.063020833333335 19.519591141396933  14.466666666666667 18.3547226954382  14.466666666666667 16.990346394094267  C 14.466666666666667 15.625970092750329  14.063020833333335 14.461101646791596  13.255729166666667 13.495741056218057  C 12.448437499999999 12.53038046564452  11.474305555555556 12.047700170357754  10.333333333333332 12.047700170357754  C 9.192361111111111 12.047700170357754  8.218229166666667 12.53038046564452  7.4109375 13.495741056218057  C 6.603645833333333 14.461101646791596  6.2 15.625970092750329  6.2 16.990346394094267  C 6.2 18.3547226954382  6.603645833333333 19.519591141396933  7.4109375 20.484951731970472  C 8.218229166666667 21.450312322544008  9.192361111111111 21.93299261783078  10.333333333333332 21.93299261783078  C 11.474305555555556 21.93299261783078  12.448437499999999 21.450312322544008  13.255729166666667 20.484951731970472  Z M 26.261197916666667 28.622941510505395  C 26.66484375 28.140261215218626  26.866666666666667 27.557826992239253  26.866666666666667 26.87563884156729  C 26.866666666666667 26.206322165436305  26.66215277777778 25.627105811092182  26.253125 25.137989778534923  C 25.844097222222224 24.648873745977664  25.359722222222224 24.404315729699036  24.8 24.404315729699036  C 24.24027777777778 24.404315729699036  23.75590277777778 24.648873745977664  23.346875 25.137989778534923  C 22.937847222222224 25.627105811092182  22.73333333333333 26.206322165436305  22.73333333333333 26.87563884156729  C 22.73333333333333 27.557826992239253  22.935156250000002 28.140261215218626  23.33880208333333 28.622941510505395  C 23.742447916666666 29.10562180579216  24.229513888888892 29.34696195343555  24.8 29.34696195343555  C 25.370486111111113 29.34696195343555  25.85755208333333 29.10562180579216  26.261197916666667 28.622941510505395  Z M 26.261197916666667 8.852356615559343  C 26.66484375 8.369676320272573  26.866666666666667 7.787242097293205  26.866666666666667 7.10505394662124  C 26.866666666666667 6.43573727049025  26.66215277777778 5.856520916146128  26.253125 5.36740488358887  C 25.844097222222224 4.878288851031609  25.359722222222224 4.633730834752981  24.8 4.633730834752981  C 24.24027777777778 4.633730834752981  23.75590277777778 4.878288851031609  23.346875 5.36740488358887  C 22.937847222222224 5.856520916146128  22.73333333333333 6.43573727049025  22.73333333333333 7.10505394662124  C 22.73333333333333 7.787242097293205  22.935156250000002 8.369676320272573  23.33880208333333 8.852356615559343  C 23.742447916666666 9.335036910846112  24.229513888888892 9.576377058489495  24.8 9.576377058489495  C 25.370486111111113 9.576377058489495  25.85755208333333 9.335036910846112  26.261197916666667 8.852356615559343  Z M 20.55364583333333 14.856899488926745  C 20.628993055555554 14.966307022525081  20.666666666666664 15.09180389929964  20.666666666666664 15.233390119250426  L 20.666666666666664 18.805224304372516  C 20.666666666666664 18.933939049782317  20.628993055555554 19.059435926556876  20.55364583333333 19.181714934696192  C 20.478298611111114 19.30399394283551  20.392187500000002 19.371569184175655  20.295312499999998 19.38444065871664  L 17.792708333333334 19.84781374219194  C 17.67430555555556 20.298315351126252  17.50208333333333 20.787431383683508  17.276041666666664 21.315161839863716  C 17.64201388888889 21.93299261783078  18.12638888888889 22.673102403937154  18.729166666666664 23.53549119818285  C 18.804513888888888 23.677077418133635  18.842187499999998 23.80579216354344  18.842187499999998 23.921635434412266  C 18.842187499999998 24.07609312890403  18.804513888888888 24.198372137043346  18.729166666666664 24.28847245883021  C 18.481597222222224 24.674616695059626  18.03758680555556 25.2506151807685  17.397135416666664 26.01646791595684  C 16.75668402777778 26.782320651145184  16.33420138888889 27.165247018739354  16.1296875 27.165247018739354  C 16.01128472222222 27.165247018739354  15.89826388888889 27.120196857845922  15.790625 27.030096536059055  L 13.933854166666666 25.29244747302669  C 13.535590277777779 25.53700548930532  13.121180555555558 25.73651334469052  12.690624999999999 25.890971039182283  C 12.572222222222225 27.28109028960818  12.448437499999999 28.278629566534168  12.319270833333334 28.88358886996025  C 12.24392361111111 29.19250425894378  12.082465277777779 29.34696195343555  11.834895833333334 29.34696195343555  L 8.831770833333334 29.34696195343555  C 8.713368055555556 29.34696195343555  8.605729166666666 29.298693923906868  8.508854166666666 29.202157864849518  C 8.411979166666667 29.10562180579216  8.358159722222222 28.992996403558585  8.347395833333334 28.86428165814878  L 7.976041666666666 25.910278250993755  C 7.610069444444445 25.781563505583946  7.206423611111111 25.58205565019875  6.765104166666667 25.31175468483816  L 4.859895833333333 27.030096536059055  C 4.784548611111111 27.120196857845922  4.676909722222223 27.165247018739354  4.536979166666667 27.165247018739354  C 4.41857638888889 27.165247018739354  4.305555555555555 27.11376112057543  4.197916666666666 27.01078932424759  C 2.6479166666666667 25.298883210297177  1.8729166666666668 24.26916524701874  1.8729166666666668 23.921635434412266  C 1.8729166666666668 23.80579216354344  1.910590277777778 23.683513155404125  1.9859375 23.55479840999432  C 2.093576388888889 23.374597766420592  2.314236111111111 23.03350369108461  2.6479166666666667 22.53151618398637  C 2.9815972222222222 22.02952867688813  3.2345486111111117 21.636948703388224  3.4067708333333333 21.353776263486658  C 3.1592013888888895 20.787431383683508  2.9708333333333337 20.25970092750331  2.8416666666666663 19.770584894946055  L 0.3875 19.307211811470754  C 0.2798611111111111 19.29434033692977  0.18836805555555558 19.233200832860117  0.11302083333333333 19.123793299261784  C 0.0376736111111111 19.014385765663448  0 18.88888888888889  0 18.747302668938104  L 0 15.175468483816013  C 0 15.046753738406206  0.0376736111111111 14.921256861631647  0.11302083333333333 14.798977853492332  C 0.18836805555555558 14.67669884535302  0.27447916666666666 14.60912360401287  0.3713541666666667 14.59625212947189  L 2.8739583333333334 14.132879045996592  C 2.9923611111111112 13.682377437062273  3.1645833333333333 13.193261404505016  3.390625 12.665530948324815  C 3.024652777777778 12.047700170357754  2.540277777777778 11.307590384251368  1.9375 10.445201590005679  C 1.8621527777777778 10.303615370054889  1.8244791666666667 10.174900624645089  1.8244791666666667 10.059057353776264  C 1.8244791666666667 9.904599659284498  1.8621527777777778 9.77588491387469  1.9375 9.672913117546848  C 2.174305555555556 9.286768881317434  2.615625 8.713988264243797  3.2614583333333336 7.954571266325949  C 3.9072916666666666 7.195154268408098  4.332465277777779 6.815445769449179  4.536979166666667 6.815445769449179  C 4.6553819444444455 6.815445769449179  4.768402777777778 6.860495930342608  4.876041666666667 6.950596252129474  L 6.7328125000000005 8.68824531516184  C 7.098784722222223 8.45655877342419  7.513194444444445 8.250615180768502  7.976041666666666 8.070414537194775  C 8.094444444444445 6.6802952867688825  8.218229166666665 5.689191747113378  8.347395833333334 5.09710391822828  C 8.422743055555557 4.7881885292447475  8.584201388888891 4.633730834752981  8.831770833333334 4.633730834752981  L 11.834895833333334 4.633730834752981  C 11.953298611111112 4.633730834752981  12.0609375 4.68199886428166  12.1578125 4.778534923339014  C 12.254687500000001 4.875070982396364  12.308506944444444 4.987696384629943  12.319270833333334 5.116411130039751  L 12.690624999999999 8.070414537194775  C 13.056597222222225 8.199129282604579  13.460243055555557 8.398637137989777  13.901562499999999 8.668938103350369  L 15.806770833333333 6.950596252129474  C 15.892881944444447 6.860495930342608  16.000520833333336 6.815445769449179  16.1296875 6.815445769449179  C 16.248090277777777 6.815445769449179  16.36111111111111 6.866931667613095  16.46875 6.969903463940945  C 18.01875 8.681809577891347  18.79375 9.71152754116979  18.79375 10.059057353776264  C 18.79375 10.162029150104106  18.75607638888889 10.284308158243418  18.68072916666667 10.425894378194208  C 18.5515625 10.631837970849892  18.325520833333336 10.979367783456365  18.002604166666664 11.46848381601363  C 17.6796875 11.957599848570887  17.4375 12.343744084800303  17.276041666666664 12.626916524701873  C 17.523611111111116 13.244747302668937  17.70659722222222 13.772477758849135  17.825 14.210107893242476  L 20.27916666666667 14.654173764906304  C 20.386805555555554 14.679916713988263  20.478298611111114 14.747491955328412  20.55364583333333 14.856899488926745  Z M 28.594270833333333 24.925610448608744  C 30.19809027777778 25.118682566723454  31.000000000000007 25.31819042210865  31 25.52413401476434  L 31 28.227143668370243  C 31.000000000000007 28.433087261025936  30.19809027777778 28.632595116411128  28.594270833333333 28.825667234525838  C 28.465104166666666 29.173197047132312  28.30364583333333 29.507855385197804  28.109895833333333 29.82964224872232  C 28.658854166666664 31.284118871853114  28.933333333333334 32.172250615180765  28.933333333333334 32.49403747870528  C 28.933333333333334 32.545523376869205  28.911805555555556 32.59057353776264  28.868750000000002 32.629187961385576  C 27.555555555555557 33.54306265379519  26.888194444444444 34  26.866666666666667 34  C 26.78055555555556 34  26.532986111111114 33.69752034828696  26.12395833333333 33.09256104486087  C 25.714930555555554 32.487601741434794  25.435069444444444 32.04997160704145  25.284375 31.779670641680866  C 25.069097222222226 31.805413590762825  24.90763888888889 31.818285065303808  24.8 31.818285065303808  C 24.69236111111111 31.818285065303808  24.530902777777783 31.805413590762825  24.315625 31.779670641680866  C 24.164930555555557 32.04997160704145  23.885069444444447 32.487601741434794  23.476041666666667 33.09256104486087  C 23.06701388888889 33.69752034828696  22.819444444444446 34  22.73333333333333 34  C 22.711805555555557 34  22.044444444444444 33.54306265379519  20.73125 32.629187961385576  C 20.688194444444445 32.59057353776264  20.666666666666664 32.545523376869205  20.666666666666664 32.49403747870528  C 20.666666666666664 32.172250615180765  20.941145833333334 31.284118871853114  21.49010416666667 29.82964224872232  C 21.296354166666667 29.507855385197804  21.13489583333333 29.173197047132312  21.00572916666667 28.825667234525838  C 19.40190972222222 28.632595116411128  18.599999999999998 28.433087261025936  18.599999999999998 28.227143668370243  L 18.599999999999998 25.52413401476434  C 18.599999999999998 25.31819042210865  19.40190972222222 25.118682566723454  21.00572916666667 24.925610448608744  C 21.145659722222224 24.552337686920307  21.30711805555556 24.217679348854816  21.49010416666667 23.921635434412266  C 20.941145833333334 22.467158811281465  20.666666666666664 21.57902706795381  20.666666666666664 21.257240204429298  C 20.666666666666664 21.20575430626538  20.688194444444445 21.160704145371948  20.73125 21.122089721749006  C 20.774305555555557 21.09634677266704  20.962673611111114 20.967632027257242  21.296354166666667 20.735945485519593  C 21.630034722222224 20.50425894378194  21.947569444444447 20.28544387658527  22.24895833333333 20.079500283929587  C 22.55034722222222 19.873556691273894  22.711805555555557 19.770584894946055  22.73333333333333 19.770584894946055  C 22.819444444444446 19.770584894946055  23.06701388888889 20.06984667802385  23.476041666666667 20.668370244179442  C 23.885069444444447 21.266893810335038  24.164930555555557 21.701306076093132  24.315625 21.971607041453723  C 24.530902777777783 21.94586409237176  24.69236111111111 21.93299261783078  24.8 21.93299261783078  C 24.90763888888889 21.93299261783078  25.069097222222226 21.94586409237176  25.284375 21.971607041453723  C 25.83333333333334 21.0577323490441  26.328472222222228 20.336929774749194  26.769791666666666 19.809199318568997  L 26.866666666666667 19.770584894946055  C 26.909722222222225 19.770584894946055  27.577083333333338 20.221086503880368  28.868750000000002 21.122089721749006  C 28.911805555555556 21.160704145371948  28.933333333333334 21.20575430626538  28.933333333333334 21.257240204429298  C 28.933333333333334 21.57902706795381  28.658854166666664 22.467158811281465  28.109895833333333 23.921635434412266  C 28.29288194444445 24.217679348854816  28.454340277777778 24.552337686920307  28.594270833333333 24.925610448608744  Z M 28.594270833333333 5.155025553662692  C 30.19809027777778 5.348097671777399  31.000000000000007 5.547605527162595  31 5.7535491198182855  L 31 8.45655877342419  C 31.000000000000007 8.662502366079877  30.19809027777778 8.862010221465075  28.594270833333333 9.055082339579783  C 28.465104166666666 9.402612152186258  28.30364583333333 9.737270490251749  28.109895833333333 10.059057353776264  C 28.658854166666664 11.513533976907059  28.933333333333334 12.401665720234714  28.933333333333334 12.723452583759226  C 28.933333333333334 12.774938481923147  28.911805555555556 12.81998864281658  28.868750000000002 12.858603066439521  C 27.555555555555557 13.772477758849135  26.888194444444444 14.229415105053945  26.866666666666667 14.229415105053945  C 26.78055555555556 14.229415105053945  26.532986111111114 13.926935453340901  26.12395833333333 13.32197614991482  C 25.714930555555554 12.717016846488734  25.435069444444444 12.279386712095398  25.284375 12.009085746734812  C 25.069097222222226 12.03482869581677  24.90763888888889 12.047700170357754  24.8 12.047700170357754  C 24.69236111111111 12.047700170357754  24.530902777777783 12.03482869581677  24.315625 12.009085746734812  C 24.164930555555557 12.279386712095398  23.885069444444447 12.717016846488734  23.476041666666667 13.32197614991482  C 23.06701388888889 13.926935453340901  22.819444444444446 14.229415105053945  22.73333333333333 14.229415105053945  C 22.711805555555557 14.229415105053945  22.044444444444444 13.772477758849135  20.73125 12.858603066439521  C 20.688194444444445 12.81998864281658  20.666666666666664 12.774938481923147  20.666666666666664 12.723452583759226  C 20.666666666666664 12.401665720234714  20.941145833333334 11.513533976907059  21.49010416666667 10.059057353776264  C 21.296354166666667 9.737270490251749  21.13489583333333 9.402612152186258  21.00572916666667 9.055082339579783  C 19.40190972222222 8.862010221465075  18.599999999999998 8.662502366079877  18.599999999999998 8.45655877342419  L 18.599999999999998 5.7535491198182855  C 18.599999999999998 5.547605527162595  19.40190972222222 5.348097671777399  21.00572916666667 5.155025553662692  C 21.145659722222224 4.781752791974256  21.30711805555556 4.447094453908761  21.49010416666667 4.151050539466212  C 20.941145833333334 2.6965739163354128  20.666666666666664 1.8084421730077571  20.666666666666664 1.4866553094832493  C 20.666666666666664 1.4351694113193247  20.688194444444445 1.3901192504258955  20.73125 1.351504826802954  C 20.774305555555557 1.3257618777209879  20.962673611111114 1.1970471323111878  21.296354166666667 0.9653605905735385  C 21.630034722222224 0.7336740488358893  21.947569444444447 0.5148589816392155  22.24895833333333 0.3089153889835323  C 22.55034722222222 0.10297179632784159  22.711805555555557 0  22.73333333333333 0  C 22.819444444444446 0  23.06701388888889 0.29926178307779505  23.476041666666667 0.8977853492333889  C 23.885069444444447 1.4963089153889828  24.164930555555557 1.930721181147077  24.315625 2.201022146507668  C 24.530902777777783 2.1752791974257017  24.69236111111111 2.1624077228847263  24.8 2.1624077228847263  C 24.90763888888889 2.1624077228847263  25.069097222222226 2.1752791974257017  25.284375 2.201022146507668  C 25.83333333333334 1.2871474540980463  26.328472222222228 0.5663448798031401  26.769791666666666 0.03861442362294154  L 26.866666666666667 0  C 26.909722222222225 0  27.577083333333338 0.45050160893431546  28.868750000000002 1.351504826802954  C 28.911805555555556 1.3901192504258955  28.933333333333334 1.4351694113193247  28.933333333333334 1.4866553094832493  C 28.933333333333334 1.8084421730077571  28.658854166666664 2.6965739163354128  28.109895833333333 4.151050539466212  C 28.29288194444445 4.447094453908761  28.454340277777778 4.781752791974256  28.594270833333333 5.155025553662692  Z " fill-rule="nonzero" fill="#000000" stroke="none" />
  </g>
</svg>