<?xml version="1.0" encoding="utf-8"?>
<svg version="1.1" xmlns:xlink="http://www.w3.org/1999/xlink" width="34px" height="34px" xmlns="http://www.w3.org/2000/svg">
  <g transform="matrix(1 0 0 1 -64 0 )">
    <path d="M 17 32.48214285714286  C 17.217948717948723 32.48214285714286  17.32692307692308 32.38095238095238  17.326923076923077 32.17857142857143  C 17.32692307692308 31.976190476190474  17.217948717948723 31.875  17 31.875  C 16.196314102564102 31.875  15.505008012820516 31.606212797619044  14.926081730769232 31.068638392857142  C 14.34715544871795 30.531063988095237  14.057692307692307 29.889136904761905  14.057692307692307 29.142857142857146  C 14.057692307692307 28.94047619047619  13.94871794871795 28.839285714285715  13.730769230769232 28.839285714285715  C 13.512820512820515 28.839285714285715  13.403846153846153 28.94047619047619  13.403846153846153 29.142857142857146  C 13.403846153846153 30.066220238095237  13.754607371794872 30.853608630952383  14.456129807692307 31.505022321428573  C 15.157652243589745 32.15643601190476  16.005608974358974 32.48214285714286  17 32.48214285714286  Z M 32.140625 25.044642857142854  C 32.69911858974359 25.626488095238095  33.318910256410255 26.183035714285715  34 26.714285714285715  C 34.00000000000001 27.37202380952381  33.7411858974359 27.94122023809524  33.22355769230769 28.421875  C 32.70592948717949 28.90252976190476  32.09294871794872 29.142857142857146  31.384615384615387 29.142857142857146  L 22.23076923076923 29.142857142857146  C 22.23076923076923 30.483630952380956  21.719951923076923 31.628348214285715  20.698317307692307 32.57700892857143  C 19.676682692307693 33.52566964285714  18.44391025641026 34  17 34  C 15.556089743589745 34  14.323317307692307 33.52566964285714  13.301682692307693 32.57700892857143  C 12.280048076923078 31.628348214285715  11.769230769230768 30.483630952380956  11.769230769230768 29.142857142857146  L 2.6153846153846154 29.142857142857146  C 1.9070512820512824 29.142857142857146  1.294070512820513 28.90252976190476  0.7764423076923076 28.421875  C 0.25881410256410264 27.94122023809524  0 27.37202380952381  0 26.714285714285715  C 0.6810897435897437 26.183035714285715  1.3008814102564106 25.626488095238095  1.859375 25.044642857142854  C 2.4178685897435903 24.462797619047617  2.996794871794872 23.70703125  3.5961538461538463 22.77734375  C 4.195512820512821 21.84765625  4.702924679487181 20.84523809523809  5.118389423076923 19.770089285714285  C 5.533854166666667 18.694940476190474  5.874399038461539 17.392113095238095  6.140024038461539 15.86160714285714  C 6.405649038461539 14.33110119047619  6.538461538461539 12.686755952380947  6.538461538461539 10.928571428571427  C 6.538461538461539 9.00595238095238  7.335336538461539 7.2193080357142865  8.929086538461538 5.5686383928571415  C 10.522836538461538 3.91796875  12.613782051282051 2.915550595238093  15.201923076923078 2.5613839285714275  C 15.092948717948719 2.321056547619045  15.038461538461538 2.074404761904762  15.038461538461538 1.8214285714285725  C 15.038461538461538 1.3154761904761896  15.229166666666668 0.8854166666666654  15.610576923076922 0.53125  C 15.99198717948718 0.1770833333333346  16.455128205128204 0  17 0  C 17.544871794871796 0  18.008012820512825 0.1770833333333346  18.389423076923077 0.53125  C 18.770833333333336 0.8854166666666654  18.961538461538463 1.3154761904761896  18.961538461538463 1.8214285714285725  C 18.961538461538463 2.074404761904762  18.907051282051285 2.321056547619045  18.798076923076923 2.5613839285714275  C 21.386217948717952 2.915550595238093  23.477163461538463 3.91796875  25.070913461538463 5.5686383928571415  C 26.664663461538463 7.2193080357142865  27.461538461538463 9.00595238095238  27.461538461538463 10.928571428571427  C 27.461538461538463 12.686755952380947  27.594350961538463 14.33110119047619  27.859975961538463 15.86160714285714  C 28.125600961538463 17.392113095238095  28.466145833333336 18.694940476190474  28.881610576923077 19.770089285714285  C 29.297075320512825 20.84523809523809  29.80448717948718 21.84765625  30.403846153846157 22.77734375  C 31.00320512820513 23.70703125  31.58213141025642 24.462797619047617  32.140625 25.044642857142854  Z " fill-rule="nonzero" fill="#000000" stroke="none" transform="matrix(1 0 0 1 64 0 )" />
  </g>
</svg>