<?xml version="1.0" encoding="utf-8"?>
<svg version="1.1" xmlns:xlink="http://www.w3.org/1999/xlink" width="35px" height="34px" xmlns="http://www.w3.org/2000/svg">
  <g transform="matrix(1 0 0 1 -132 0 )">
    <path d="M 34.767578125 24.581380208333332  C 34.922526041666664 25.695529513888886  35 26.879774305555554  35 28.134114583333336  C 35 29.74262152777778  34.43033854166667 31.122395833333336  33.291015625 32.2734375  C 32.151692708333336 33.424479166666664  30.779947916666668 34  29.17578125 34  L 5.82421875 34  C 4.220052083333333 34  2.848307291666667 33.424479166666664  1.7089843750000002 32.2734375  C 0.5696614583333335 31.122395833333336  0 29.74262152777778  0 28.134114583333336  C 0 26.879774305555554  0.07747395833333351 25.695529513888886  0.2324218750000002 24.581380208333332  C 0.38736979166666685 23.46723090277777  0.6744791666666669 22.345703125  1.0937500000000002 21.216796875  C 1.5130208333333337 20.087890625  2.0462239583333335 19.12131076388889  2.693359375 18.317057291666668  C 3.340494791666667 17.512803819444443  4.197265625 16.856119791666664  5.263671875 16.347005208333336  C 6.330078125 15.837890625  7.555989583333334 15.583333333333334  8.94140625 15.583333333333334  C 11.329427083333334 17.47222222222222  14.182291666666668 18.416666666666668  17.5 18.416666666666668  C 20.81770833333334 18.416666666666668  23.670572916666668 17.47222222222222  26.05859375 15.583333333333334  C 27.444010416666668 15.583333333333334  28.669921875 15.837890625  29.736328125 16.347005208333336  C 30.802734375 16.856119791666664  31.659505208333336 17.512803819444443  32.306640625 18.317057291666668  C 32.95377604166667 19.12131076388889  33.486979166666664 20.087890625  33.90625 21.216796875  C 34.325520833333336 22.345703125  34.612630208333336 23.46723090277777  34.767578125 24.581380208333332  Z M 24.923828125 2.490234375  C 26.974609375 4.150390625  28 6.153645833333335  28 8.5  C 28 10.846354166666666  26.974609375 12.849609375  24.923828125 14.509765625  C 22.873046875 16.169921875  20.3984375 17  17.5 17  C 14.6015625 17  12.126953125 16.169921875  10.076171875 14.509765625  C 8.025390625 12.849609375  7 10.846354166666666  7 8.5  C 7 6.153645833333335  8.025390625 4.150390625  10.076171875 2.490234375  C 12.126953125 0.830078125  14.6015625 0  17.5 0  C 20.3984375 0  22.873046875 0.830078125  24.923828125 2.490234375  Z " fill-rule="nonzero" fill="#000000" stroke="none" transform="matrix(1 0 0 1 132 0 )" />
  </g>
</svg>